<svg xmlns="http://www.w3.org/2000/svg" viewBox="0 0 300 300" xmlns:v="https://vecta.io/nano"><style><![CDATA[.J{fill-rule:evenodd}.K{fill:#7ac142}]]></style><g transform="matrix(.986043 0 0 .986043 174.04831 -229.39937)"><linearGradient id="A" gradientUnits="userSpaceOnUse" x1="-26.406" y1="294.455" x2="-26.406" y2="474.236"><stop offset="0" stop-color="#38498d"/><stop offset="1" stop-color="#6acef4"/></linearGradient><path d="M-161.14 291.22l269.04.82.41 93.76-87.23-.41v92.94H-73.9V385.8l-86.83.41-.41-94.99z" fill="url(#A)" class="J"/><path d="M21.07 479.49h-94.98c-.65 0-1.17-.52-1.17-1.17v-91.36l-85.65.4a1.18 1.18 0 0 1-.84-.34c-.22-.22-.35-.52-.35-.83l-.41-94.98c0-.31.12-.61.34-.83s.52-.34.83-.34l269.04.82a1.17 1.17 0 0 1 1.17 1.17l.41 93.76c0 .31-.12.61-.34.83s-.52.34-.83.34l-86.07-.4v91.76c.02.65-.5 1.17-1.15 1.17zm-93.81-2.34H19.9v-91.77a1.14 1.14 0 0 1 .35-.83c.22-.22.52-.34.83-.34l86.06.4-.4-91.41-266.7-.81.4 92.63 85.65-.4a1.18 1.18 0 0 1 .84.34c.22.22.35.52.35.83v91.36z" fill="red"/><linearGradient id="B" gradientUnits="userSpaceOnUse" x1="-133.726" y1="300.05" x2="-133.726" y2="376.819"><stop offset="0" stop-color="#ef3f55"/><stop offset="1" stop-color="#ffd703"/></linearGradient><path d="M-156.36 296.37h45.25v17.12h-13.86v68.08h-17.12v-67.26h-13.86l-.41-17.94z" fill="url(#B)" class="J"/><path d="M-123.82 382.73h-19.44v-67.26h-13.83l-.46-20.25h47.59v19.44h-13.86v68.07zm-17.12-2.32h14.81v-68.08h13.86v-14.81h-42.91l.36 15.62h13.89v67.27z" class="K"/><linearGradient id="C" gradientUnits="userSpaceOnUse" x1="-80.327" y1="300.458" x2="-80.327" y2="375.499"><stop offset="0" stop-color="#ef3f55"/><stop offset="1" stop-color="#ffd703"/></linearGradient><path d="M-107.65 297.19v83.97h54.62l-9.17-16.92h-28.53V335.5h9.78l7.34-13.25h-16.92v-8.76h15.29l9.58-16.71-41.99.41z" fill="url(#C)" class="J"/><path d="M-51.08 382.32h-57.73v-86.28l45.15-.44-10.92 19.05h-14.8v6.45h17.72l-8.62 15.56h-9.31v26.42h28.07l10.44 19.24zm-55.41-2.32h51.52l-7.92-14.6h-29v-31.05h10.26l6.06-10.93h-16.11v-11.08h15.77l8.24-14.38-38.82.38V380z" class="K"/><linearGradient id="D" gradientUnits="userSpaceOnUse" x1="-40.584" y1="300.05" x2="-40.584" y2="374.673"><stop offset="0" stop-color="#ef3f55"/><stop offset="1" stop-color="#ffd703"/></linearGradient><path d="M-63.22 296.58v16.92h13.45v67.26h17.94V314.1h13.86v-17.94l-45.25.42z" fill="url(#D)" class="J"/><path d="M-30.67 381.91h-20.25v-67.26h-13.45v-19.22l47.56-.43v20.26h-13.86v66.65zm-17.94-2.31h15.62v-66.65h13.86v-15.61l-42.93.39v14.61h13.45v67.26z" class="K"/><linearGradient id="E" gradientUnits="userSpaceOnUse" x1="19.528" y1="302.412" x2="19.528" y2="374.982"><stop offset="0" stop-color="#ef3f55"/><stop offset="1" stop-color="#ffd703"/></linearGradient><path d="M-14.71 296.78v83.57H2.21v-72.36c1 .26 10.39 0 10.39 0l-9.08 15.72 29.66 57.45h20.59l-29.35-58.29h-8.76l15.12-26.19c0 0-46.71-.1-45.49.1h0z" fill="url(#E)" class="J"/><path d="M55.65 382.32H32.48L2.92 325.05l.45 55.27.02 1.17h-19.25v-83.74l-.09-.01.07-1.07c.09-1.05 1.09-1.08 1.63-1.09l1.47-.03 5.17-.04 15.65-.02 22.75.03h2L17.67 321.7h7.47l.32.64 30.19 59.98zM33.89 380h18l-28.18-55.98H13.66l15.12-26.19c-15.75-.03-37.34-.04-42.33.04v81.31H1.04l-.36-34.73-.05-24.85c.08-11.92.27-12.08.85-12.53l.45-.35.58.14c.67.13 5.65.09 10.06-.04l2.07-.06-9.8 16.97L33.89 380zM3.16 309.23c-.14 1.93-.21 6.74-.23 13.21l7.64-13.24c-2.44.06-5.62.1-7.41.03z" class="K"/><linearGradient id="F" gradientUnits="userSpaceOnUse" x1="48.889" y1="299.791" x2="48.889" y2="375.69"><stop offset="0" stop-color="#ef3f55"/><stop offset="1" stop-color="#ffd703"/></linearGradient><path d="M40.26 316.87V348l17.29 33.15v-64.42l-17.29.14zm-.14-20.91v17.53h17.53v-17.32l-17.53-.21z" fill="url(#F)" class="J"/><path d="M56.53 381.69l-17.43-33.4v-32.56l19.61-.16v65.59l-2.18.53zm-15.11-33.97l14.98 28.71V317.9l-14.98.12v29.7zm17.39-33.07H38.96v-19.86l19.84.23v19.63zm-17.53-2.32h15.21v-15.02l-15.21-.18v15.2z" class="K"/><linearGradient id="G" gradientUnits="userSpaceOnUse" x1="81.774" y1="301.486" x2="81.774" y2="373.961"><stop offset="0" stop-color="#ef3f55"/><stop offset="1" stop-color="#ffd703"/></linearGradient><path d="M60.44 296.55v17.01l25.65 50.3H64.76l-4.32-2.74v19.17l.14 1.01h42.52v-21.76l-24.21-48.43 1.3-1.73h13.98l2.31 3.03 6.63-16.29-42.67.43z" fill="url(#G)" class="J"/><path d="M104.26 382.45H59.58l-.3-2.17v-21.27l5.82 3.68h19.1l-24.92-48.86V295.4l45.55-.46-8.05 19.77-3.19-4.18H80.76l-.52.69 24.01 48.03v23.2zm-42.66-2.31h40.35v-20.33l-24.41-48.82 2.07-2.76h15.13l1.42 1.87 5.21-12.8-39.77.4v15.58l26.39 51.73H64.43l-2.83-1.79v16.92z" class="K"/></g></svg>